<?xml version="1.0" encoding="utf-8"?>
<!-- Generator: Adobe Illustrator 28.3.0, SVG Export Plug-In . SVG Version: 6.00 Build 0)  -->
<svg version="1.1" id="Layer_6" xmlns="http://www.w3.org/2000/svg" xmlns:xlink="http://www.w3.org/1999/xlink" x="0px" y="0px"
	 viewBox="0 0 264.33 257.75" style="enable-background:new 0 0 264.33 257.75;" xml:space="preserve">
<style type="text/css">
	.st0{fill:#FFFFFF;}
	.st1{fill:#FFFFFF;stroke:#000000;stroke-width:0.25;stroke-miterlimit:10;}
	.st2{fill:#DB6445;}
	.st3{fill:#117774;}
	.st4{fill:#EE9223;}
	.st5{fill:#F4B723;}
	.st6{fill:#85C8C7;}
	.st7{fill:#422E15;stroke:#000000;stroke-width:0.5;stroke-miterlimit:10;}
	.st8{fill:#CB9866;stroke:#000000;stroke-width:0.5;stroke-miterlimit:10;}
	.st9{fill:#422E15;}
	.st10{fill:#8A6844;stroke:#422E15;stroke-miterlimit:10;}
	.st11{fill:none;stroke:#000000;stroke-width:0.25;stroke-miterlimit:10;}
	.st12{fill:none;stroke:#000000;stroke-width:0.75;stroke-miterlimit:10;}
	.st13{stroke:#FFFFFF;stroke-miterlimit:10;}
	.st14{stroke:#F4B723;stroke-width:0.5;stroke-miterlimit:10;}
</style>
<g>
	<path class="st0" d="M209.91,187.22c-1.17-4.69-4.22-8.66-8.31-11.21c2.97-3.01,4.16-6.17,4.6-8.54c0.88-4.69-0.49-9.6-3.62-13.48
		c-0.37-2.47-1.3-6.34-4.66-9.79c-2.57-2.64-6.04-4.37-9.79-4.94c-0.12-0.26-0.25-0.51-0.38-0.77c-1.46-2.76-3.6-4.99-6.22-6.57
		c0.11-8.24-2.89-16.36-8.4-22.53c-5.18-5.8-12.3-9.6-19.95-10.72c-0.39-1.38-1.13-3.4-2.75-5.32c-2.67-3.14-6.14-4.1-7.63-4.51
		c-0.09-0.03-0.19-0.05-0.28-0.08V60.34h1.58V28.75h-0.91c-0.45-1.09-1.06-2.12-1.84-3.07c-2.33-2.84-5.22-3.63-6.3-3.93
		c-0.07-0.02-0.12-0.03-0.16-0.04c-1.04-0.82-3.51-2.68-7.42-2.76l-0.26,0c-3.46,0-5.71,1.47-6.68,2.09
		c-0.3,0.2-0.54,0.35-1.21,0.66c-0.33,0.15-0.6,0.27-0.82,0.36c-1.34,0.56-3.83,1.6-5.81,4.46c-0.49,0.71-0.91,1.46-1.23,2.23h-0.72
		v2.35c-0.33,1.66-0.33,3.44,0,5.34v23.9h1.33v31.75c-1.65,0.67-3.14,1.57-4.45,2.66c-1.36-0.91-3.02-1.79-4.99-2.35
		c-1.44-0.41-2.96-0.62-4.51-0.62c-2.92,0-5.51,0.74-7.2,1.3c-1.16,0.38-4.67,1.54-6.94,5.26c-1.9,3.12-1.74,6.17-1.68,7.32
		c0.05,1.01,0.02,2.57-0.01,4.23c-0.01,0.75-0.03,1.53-0.04,2.35c-3.56,1.66-6.58,4.44-8.94,7.66c-1.67-0.37-3.29-0.55-4.89-0.55
		c-7.25,0-13.38,3.9-16.81,10.71c-3.61,7.17-1.78,13.76,0.8,18.78c-0.81,3.78-0.36,7.68-0.13,9.6c0.51,4.34,1.59,6.93,2.38,8.83
		c0.56,1.34,0.86,2.07,1.13,3.87c0.11,0.76,0.17,1.39,0.23,2.05c0.04,0.41,0.08,0.88,0.14,1.4c-0.17,0.21-0.34,0.42-0.5,0.63
		c-0.21,0.05-0.42,0.11-0.62,0.17c-6.49,2.01-9.07,8.26-7.68,18.57c0.63,4.65,1.96,7.43,2.93,9.45c0.66,1.38,0.84,1.75,0.96,3
		c0.06,0.58,0.06,1.09,0.07,1.68c0.03,2.15,0.1,6.61,3.99,10.28c2.61,2.46,6.24,3.82,10.2,3.82c2.33,0,4.51-0.45,6.42-1.27
		c1.77,2.69,4.15,5.02,6.98,6.75c0.25,0.15,0.5,0.3,0.76,0.45c2.69,3.38,6.09,5.88,9.97,7.33c2.23,0.83,4.61,1.25,7.06,1.25
		c4.62,0,8.92-1.44,12.34-3.91c1.87,0.77,4,1.28,6.37,1.28c0.25,0,0.5-0.01,0.76-0.02c2.5-0.12,4.63-0.82,6.16-1.42
		c1.67,1.18,3.56,2.07,5.56,2.57c0.62,0.16,1.19,0.26,1.67,0.34c0.37,0.3,0.8,0.64,1.31,0.98c2.48,1.67,5.41,2.55,8.47,2.55
		c5.21,0,10.02-2.5,12.85-6.69c0.41-0.61,0.75-1.21,1.04-1.78c2-0.46,4.06-1.13,6.16-2.03c3.66-1.56,6.72-3.38,9.23-5.49
		c0.93,0.12,1.87,0.18,2.82,0.18c2.01,0,3.99-0.27,5.9-0.81c0.38,0.02,0.75,0.03,1.13,0.03c2.45,0,4.71-0.43,6.67-1.22
		c2.25,0.61,4.6,0.95,6.82,0.95c0,0,0,0,0,0c5.62,0,10.49-2.11,13.71-5.93c3.75-4.45,5.28-11.34,3.03-16.83
		C210.39,195.82,211,191.56,209.91,187.22z"/>
	<path class="st1" d="M139.35,239.08c-3.07,0-6-0.88-8.47-2.55c-0.5-0.34-0.94-0.68-1.31-0.98c-0.48-0.08-1.05-0.19-1.67-0.34
		c-2-0.51-3.89-1.39-5.56-2.57c-1.53,0.6-3.66,1.3-6.16,1.42c-0.26,0.01-0.51,0.02-0.76,0.02c-2.36,0-4.49-0.51-6.37-1.28
		c-3.42,2.47-7.72,3.91-12.34,3.91c-2.45,0-4.83-0.42-7.06-1.25c-3.88-1.44-7.28-3.95-9.97-7.33c-0.26-0.14-0.51-0.29-0.76-0.45
		c-2.83-1.74-5.21-4.07-6.98-6.75c-1.92,0.82-4.1,1.27-6.42,1.27c-3.96,0-7.59-1.36-10.2-3.82c-3.89-3.67-3.96-8.13-3.99-10.28
		c-0.01-0.59-0.02-1.1-0.07-1.68c-0.12-1.25-0.3-1.62-0.96-3c-0.97-2.02-2.3-4.8-2.93-9.45c-1.39-10.31,1.19-16.56,7.68-18.57
		c0.21-0.06,0.41-0.12,0.62-0.17c0.16-0.21,0.33-0.42,0.5-0.63c-0.07-0.52-0.11-0.99-0.14-1.4c-0.06-0.67-0.11-1.3-0.23-2.05
		c-0.27-1.79-0.58-2.53-1.13-3.87c-0.79-1.89-1.87-4.49-2.38-8.83c-0.23-1.92-0.68-5.82,0.13-9.6c-2.59-5.02-4.42-11.61-0.8-18.78
		c3.43-6.81,9.55-10.71,16.81-10.71c1.6,0,3.23,0.18,4.89,0.55c2.36-3.23,5.38-6.01,8.94-7.66c0.01-0.82,0.03-1.6,0.04-2.35
		c0.03-1.66,0.06-3.22,0.01-4.23c-0.06-1.15-0.22-4.2,1.68-7.32c2.26-3.71,5.78-4.87,6.94-5.26c1.69-0.56,4.28-1.3,7.2-1.3
		c1.55,0,3.07,0.21,4.51,0.62c1.97,0.56,3.62,1.44,4.99,2.35c1.31-1.09,2.8-1.99,4.45-2.66V60.34h-1.33v-23.9
		c-0.33-1.89-0.33-3.67,0-5.34v-2.35h0.72c0.33-0.78,0.74-1.52,1.23-2.23c1.98-2.86,4.47-3.9,5.81-4.46
		c0.22-0.09,0.49-0.2,0.82-0.36c0.67-0.31,0.91-0.46,1.21-0.66c0.96-0.63,3.22-2.09,6.68-2.09l0.26,0c3.91,0.08,6.38,1.94,7.42,2.76
		c0.04,0.01,0.09,0.02,0.16,0.04c1.08,0.3,3.97,1.08,6.3,3.93c0.78,0.95,1.39,1.98,1.84,3.07h0.91v31.59h-1.58v28.43
		c0.09,0.03,0.19,0.05,0.28,0.08c1.49,0.41,4.96,1.37,7.63,4.51c1.63,1.92,2.37,3.94,2.75,5.32c7.65,1.12,14.77,4.92,19.95,10.72
		c5.51,6.18,8.51,14.29,8.4,22.53c2.62,1.58,4.76,3.81,6.22,6.57c0.14,0.26,0.26,0.51,0.38,0.77c3.76,0.57,7.23,2.3,9.79,4.94
		c3.35,3.45,4.28,7.32,4.66,9.79c3.14,3.88,4.5,8.79,3.62,13.48c-0.44,2.37-1.63,5.54-4.6,8.54c4.09,2.55,7.14,6.51,8.31,11.21
		c1.09,4.34,0.47,8.59-1.21,12.24c2.25,5.49,0.72,12.38-3.03,16.83c-3.22,3.82-8.09,5.93-13.71,5.93c0,0,0,0,0,0
		c-2.22,0-4.57-0.33-6.82-0.95c-1.96,0.79-4.21,1.22-6.67,1.22c-0.38,0-0.76-0.01-1.13-0.03c-1.91,0.54-3.89,0.81-5.9,0.81
		c-0.95,0-1.89-0.06-2.82-0.18c-2.51,2.12-5.56,3.94-9.23,5.49c-2.1,0.89-4.16,1.57-6.16,2.03c-0.29,0.57-0.63,1.17-1.04,1.78
		C149.36,236.58,144.56,239.08,139.35,239.08z"/>
</g>
<g>
	<path class="st2" d="M121.39,204.2c-0.07,0.91-0.12,1.88,0.33,2.67c0.38,0.65,1.04,1.07,1.57,1.61c3.11,3.13,0.73,8.6,2.25,12.74
		c0.77,2.09,2.62,3.76,4.79,4.3c1.22,0.31,2.54,0.29,3.66,0.86c0.92,0.47,1.6,1.28,2.46,1.86c2.33,1.57,5.89,0.88,7.46-1.45
		c0.86-1.27,1.14-2.85,1.85-4.22c2.16-4.16,7.9-5.68,9.6-10.04c1.49-3.82-0.76-7.99-2.94-11.46c-0.76-1.22-1.55-2.47-2.68-3.36
		c-1.46-1.15-3.36-1.61-5.22-1.71c-4.16-0.22-8.22,1.16-12.36,1.62c-2.11,0.24-7.86-1.92-9.21-1.31
		C120.96,197.21,121.52,202.37,121.39,204.2z"/>
	<path class="st3" d="M147.73,154.56c7.02,0.35,13.69,4.7,16.84,10.98c0.85,1.69,1.46,3.51,2.57,5.05c1.46,2.03,3.65,3.39,5.82,4.63
		c4.79,2.75,9.94,5.34,13.17,9.81c3.23,4.47,3.67,11.56-0.68,14.95c-2.14,1.67-5.32,2.48-6.14,5.06c-0.45,1.44,0.01,3.05-0.46,4.48
		c-0.54,1.64-2.19,2.67-3.84,3.19c-3.13,1-6.68,0.62-9.54-1c-8.58-4.87-8.29-17.81-15.27-24.79c-3.83-3.82-9.35-5.35-13.84-8.37
		c-3.34-2.25-6.05-5.29-8.73-8.29c-1.36-1.52-2.78-3.19-3-5.22C123.7,156.55,142.31,154.29,147.73,154.56z"/>
	<path class="st4" d="M80.77,134.24c3.47,2.33,7.35,4.59,11.58,3.96c2.33-0.35,4.55-1.55,6.79-2.48c4.32-1.79,8.97-2.62,13.29-1.73
		s8.27,3.65,10.27,7.89c0.59,1.25,1.01,2.62,1.6,3.88c0.73,1.58,1.72,2.99,2.48,4.55c1.94,4.01,2.24,9.13,0.56,13.63
		c-1.68,4.51-5.39,8.26-9.61,9.4c-4.17,1.12-8.3-0.25-12.38-0.99c-3.45-0.62-7.07-0.77-10.57,0.32c-3.5,1.09-6.87,3.56-8.7,7.12
		c-4.4,0.93-8.74-1.26-11.55-4.75c-2.81-3.49-4.28-8.11-5.22-12.79c-0.53-2.64-0.91-5.36-1.88-7.81
		c-2.24-5.68-10.63-12.47-6.9-19.87C65.29,125.13,75.53,130.71,80.77,134.24z"/>
	<path class="st4" d="M138.26,119.73c-0.45-3.81,1.03-8.01,4.31-9.99c1.97-1.19,4.37-1.48,6.68-1.4c6.21,0.22,12.28,3.07,16.42,7.71
		c4.14,4.64,6.28,10.99,5.8,17.19c-0.46,5.91-3.1,12.26-0.23,17.44c1.37,2.47,3.9,4.41,4.24,7.21c0.24,1.96-0.71,3.89-1.94,5.43
		c-4.36,5.42-13.29,6.75-18.59,2.25c-3.87-3.29-5.27-8.82-4.71-13.87c0.48-4.3,2.21-8.62,1.21-12.84
		C149.42,130.36,139.37,129.04,138.26,119.73z"/>
	<path class="st5" d="M145.55,141.49c0.77,2.94,0.8,6.04,0.56,9.07c-0.05,0.59-0.1,1.19,0.1,1.75c0.21,0.6,0.7,1.07,1.21,1.46
		c1.1,0.84,2.39,1.45,3.77,1.63c2.68,0.36,5.41-0.95,7.18-2.99c1.77-2.04,2.68-4.71,3.03-7.39c0.15-1.15,0.2-2.32-0.02-3.45
		c-0.29-1.5-1.04-2.86-1.57-4.28c-1.11-3-1.31-6.44-3.28-8.96c-1.57-2.02-4.03-3.11-6.41-4.05c-1.37-0.54-2.86-1.07-4.29-0.72
		c-0.98,0.24-1.82,0.88-2.58,1.55c-1.26,1.12-2.42,2.42-3,4c-0.99,2.68,0.11,4.1,1.83,5.89
		C143.79,136.79,144.93,139.1,145.55,141.49z"/>
	<path class="st5" d="M102.83,123.6c-4.08-0.56-9.09,0.2-10.82,3.94c-2.41,5.22,3.61,11.13,2.19,16.7c-0.66,2.6-2.81,4.51-4.6,6.51
		c-2.15,2.41-3.91,5.17-5.18,8.14c-0.49,1.15-0.92,2.37-0.9,3.63c0.02,1.46,0.65,2.85,1.45,4.08c3.52,5.36,10.83,7.86,16.9,5.78
		s10.3-8.55,9.79-14.94c-0.26-3.23-1.58-6.26-2.46-9.38c-0.88-3.12-1.29-6.6,0.18-9.48c1.17-2.28,8.18-7.13,6.97-9.92
		C115.1,125.75,105.59,123.98,102.83,123.6z"/>
	<path class="st2" d="M95.97,128.54c2.66,2.61,7.13,3.34,10.27,1.33c1.75-1.12,3.15-3.02,5.21-3.29c0.95-0.12,1.92,0.12,2.86-0.04
		c2.33-0.42,3.44-3.05,4.15-5.31c0.81-2.59,1.62-5.18,2.43-7.77c0.83-2.65,1.42-6.09-0.83-7.72c-1.57-1.14-3.76-0.71-5.57,0
		c-1.8,0.71-3.62,1.69-5.55,1.5c-3.51-0.34-5.65-4.26-9.04-5.22c-1.91-0.54-3.95-0.06-5.84,0.56c-0.59,0.19-1.22,0.44-1.54,0.97
		c-0.28,0.47-0.26,1.05-0.24,1.59C92.61,111.22,90.82,124.03,95.97,128.54z"/>
	<path class="st6" d="M108.57,128.93c-0.59,2.97-1.93,5.86-1.73,8.88c0.53,8,11.16,12.5,11.64,20.51c0.21,3.53-1.89,7.05-5.03,8.69
		c-3.14,1.64-7.13,1.39-10.13-0.5c-3.79-2.38-5.67-6.79-8.13-10.53c-3.07-4.67-7.33-8.56-12.26-11.2c-1.21-0.65-2.48-1.24-3.44-2.21
		c-5.7-5.8,1.35-20.07,8.41-21.76c4.03-0.97,9.14-0.59,13.24-0.63C106.73,120.11,109.71,123.17,108.57,128.93z"/>
	<path class="st6" d="M166.86,140.11c4.18-1.83,9.92-0.97,12.05,3.07c1.85,3.48,0.69,8.44,3.67,11.03c1.2,1.04,2.82,1.42,4.35,1.83
		c2.39,0.64,4.81,1.46,6.71,3.05c1.9,1.59,3.2,4.1,2.74,6.54c-0.57,3.04-3.52,4.97-6.3,6.31s-5.88,2.62-7.41,5.31
		c-0.45,0.8-0.74,1.69-1.22,2.48c-1.59,2.65-5.1,3.7-8.13,3.08c-3.03-0.63-5.6-2.63-7.67-4.93c-1.12-1.24-2.13-2.6-3.46-3.61
		c-1.42-1.07-3.12-1.69-4.68-2.54c-2.9-1.58-5.29-3.94-7.63-6.27c-1.12-1.11-2.3-2.34-2.52-3.9c-0.33-2.36,1.64-4.39,3.62-5.71
		C157.41,151.56,159.41,143.37,166.86,140.11z"/>
	<path class="st3" d="M116.45,101.13c2.43-0.77,5.11,0.03,7.6-0.5c2.42-0.51,4.44-2.23,6.81-2.93c3.02-0.89,6.24-0.06,9.28,0.78
		c0.98,0.27,2.01,0.58,2.67,1.35c0.51,0.6,0.72,1.4,0.9,2.17c1.49,6.08,2.94,12.18,4.37,18.27c0.27,1.14,0.53,2.31,0.33,3.46
		c-0.53,3.08-4.27,4.67-7.35,4.14c-4.9-0.85-8.35-5.08-12.95-6.7c-3.1-1.09-6.52-0.82-9.58-1.9
		C111.85,116.9,107.99,103.81,116.45,101.13z"/>
	<path class="st5" d="M124.99,186.4c0.89-1.27,2.11-2.27,3.32-3.24c3.46-2.8,7.06-5.67,11.35-6.82c4.3-1.15,9.52-0.1,11.94,3.64
		c0.9,1.39,1.35,3.04,2.35,4.36c1.98,2.63,5.63,3.4,8,5.69c1.15,1.11,1.95,2.53,2.64,3.97c2.68,5.59,3.9,12.49,0.74,17.82
		c-2.15,3.62-5.96,5.92-9.83,7.56c-4.41,1.87-9.75,3.01-13.79,0.44c-5.01-3.2-6.37-11.12-12.13-12.58
		c-1.72-0.44-3.64-0.21-5.15-1.12c-1.46-0.89-2.17-2.69-2.2-4.39c-0.04-2.47,0.83-4.85,0.87-7.35
		C123.13,191.59,123.34,188.75,124.99,186.4z"/>
	<path class="st6" d="M125.31,172.24c-0.32-0.71-0.67-1.46-1.3-1.92c-0.82-0.6-1.92-0.6-2.85-1.01c-1.41-0.62-2.25-2.1-3.54-2.96
		c-1.91-1.26-4.46-0.95-6.61-0.16s-4.16,1.99-6.41,2.41c-2.84,0.53-5.86-0.22-8.59,0.69c-4.76,1.58-6.54,7.18-8.77,11.68
		c-0.92,1.86-2.04,3.69-2.34,5.75c-0.38,2.64,0.67,5.26,1.69,7.72c1.01,2.43,2.22,5.08,4.63,6.14c3.56,1.56,7.43-1.16,11.25-1.85
		c3.01-0.54,6.28,0.17,9.05-1.14c4.76-2.25,5.81-8.97,11.13-10.34c3.12-0.81,6.61-0.65,6.55-5.1
		C129.14,179.07,126.55,175,125.31,172.24z"/>
	<path class="st2" d="M159.06,151.36c1.24-0.17,2.55-0.31,3.71,0.16c1.01,0.4,1.79,1.22,2.46,2.09c2.32,3.01,3.54,6.85,3.39,10.65
		c-0.09,2.27-0.53,4.92,1.09,6.51c0.78,0.76,1.89,1.1,2.69,1.83c0.96,0.87,1.37,2.22,1.41,3.51c0.1,2.84-1.48,5.68-3.94,7.09
		c-2.47,1.42-5.71,1.35-8.11-0.17c-4.02-2.54-4.91-7.98-7.87-11.7c-2.91-3.66-14.13-8.08-12.7-13.9
		C142.46,152.24,155.05,151.9,159.06,151.36z"/>
	<path class="st5" d="M101.36,127.08c-1.11-0.96-1.89-2.43-1.62-3.87c0.27-1.44,1.51-2.51,2.82-3.17c1.31-0.66,2.75-1.03,4.03-1.74
		c3.36-1.87,5.43-6,9.21-6.72c1.58-0.3,3.21,0.06,4.8-0.13c1.31-0.16,2.54-0.69,3.83-0.96c3.24-0.67,6.56,0.35,9.71,1.36
		c0.56,0.18,1.15,0.38,1.54,0.82c0.87,0.97,0.35,2.51,0.7,3.76c0.26,0.95,1.01,1.69,1.34,2.61c0.59,1.69-0.36,3.52-1.51,4.89
		c-2.88,3.42-7.26,5.54-11.73,5.67c-2.07,0.06-4.14-0.31-6.2-0.14c-2.01,0.16-3.71,1.16-5.65,1.45
		C109.33,131.39,103.88,129.25,101.36,127.08z"/>
	<path class="st2" d="M80.22,167.12c6.92-3.83,15.47,0,23.36-0.51c1.89-0.12,3.75-0.5,5.64-0.49c6.68,0.02,12.7,5.05,15.14,11.28
		c0.78,1.98,1.25,4.21,0.61,6.24c-0.37,1.17-1.07,2.2-1.54,3.34c-1.25,3.06-0.62,6.54-1.13,9.81c-0.13,0.82-0.34,1.65-0.85,2.3
		c-0.53,0.68-1.33,1.09-2.12,1.43c-1.96,0.85-4.03,1.44-6.15,1.74c-2.82,0.4-6.08,0.47-7.9,2.68c-2.45,2.98-0.5,7.66-2.03,11.2
		c-1.2,2.76-4.26,4.22-7.21,4.81c-4.03,0.8-8.4,0.36-11.9-1.79c-3.5-2.15-5.96-6.15-5.71-10.25c0.25-4.12,3.04-7.92,2.56-12.02
		c-0.29-2.48-1.88-4.77-4.09-5.92c-2.26-1.18-4.93-1.15-7.46-1.52c-5.85-0.86-9.59-6.77-3.53-10.11c2.68-1.48,4.73-2.64,6.81-4.99
		C75.03,171.76,77.11,168.84,80.22,167.12z"/>
	<path class="st4" d="M76.51,191.98c0-0.77,0-1.57,0.38-2.24c0.42-0.74,1.22-1.19,2.02-1.48c3.64-1.35,7.79-0.4,11.51-1.53
		c2.49-0.76,4.94-2.45,7.47-1.81c1.71,0.43,2.97,1.83,4.12,3.17c1.41,1.64,2.91,3.49,2.89,5.65c-0.02,1.94-1.25,3.63-1.81,5.48
		c-2.07,6.85,5.2,13.86,3.4,20.79c-1.38,5.34-8.19,8-13.35,6.07c-5.17-1.92-8.47-7.28-9.3-12.73c-0.24-1.56-0.31-3.17-0.88-4.64
		c-1.22-3.16-4.5-4.94-5.82-7.99C75.98,198.11,76.52,194.79,76.51,191.98z"/>
	<path class="st3" d="M132.4,199.13c0.91,0.18,1.87,0.38,2.55,1.01c1.22,1.13,1.02,3.18,0.19,4.62c-0.83,1.44-2.15,2.55-3.09,3.92
		c-1.7,2.49-2.07,5.69-3.71,8.22c-1.97,3.03-5.45,4.67-8.78,6.07c-1.24,0.52-2.51,1.03-3.86,1.1c-3.08,0.15-5.74-2.07-7.85-4.32
		c-2.11-2.25-4.22-4.79-7.18-5.65c-1.43-0.42-2.95-0.39-4.43-0.57c-3.77-0.44-7.37-2.18-10.04-4.87c-1.64-1.64-2.98-3.79-2.9-6.11
		c0.11-3.22,2.87-5.71,5.64-7.34c2.27-1.34,4.77-2.41,7.4-2.58c6.85-0.45,12.98,5.15,19.83,4.82
		C122.05,197.17,126.56,197.97,132.4,199.13z"/>
	<path class="st3" d="M99.6,152.48c-1.65-2.3-3.65-4.66-3.72-7.49c-0.06-2.56,1.48-4.84,2.95-6.93c1.19-1.68,2.42-3.41,4.13-4.55
		s4.04-1.62,5.84-0.62c1.13,0.63,1.92,1.74,2.5,2.9c1.75,3.55,1.79,7.69,1.35,11.62c-0.44,3.93-1.33,7.83-1.31,11.78
		c0.01,3.13-1.46,17.19-5.82,8.26c-0.96-1.96-0.68-4.27-1.29-6.34C103.35,158.05,101.45,155.05,99.6,152.48z"/>
	<rect x="110.39" y="173.45" class="st7" width="34.7" height="5.57"/>
	<path class="st8" d="M136.35,205.4h-17.19c-1.77-0.01-10.87-0.21-18.21-7.54c-0.82-0.82-7.97-8.18-7.54-18.21
		c0.32-7.63,4.95-14.89,7.42-18.77c2.79-4.38,4.77-6.1,4.88-9.75c0.11-3.91-2.07-5.18-3.18-10.39c-0.83-3.88-0.73-8.41,0.42-11.66
		c3.13-8.78,15.44-12.75,24.18-12.93c9.88-0.2,22.75,4.28,25.5,12.88c1.38,4.31,0.36,10.11,0.18,11.13
		c-0.96,5.43-2.88,7.06-2.59,11.04c0.27,3.6,2.05,5.22,4.63,9.38c2.36,3.81,6.99,11.27,7.25,19.07c0.34,10.12-6.79,17.46-7.54,18.21
		C147.24,205.16,138.15,205.39,136.35,205.4z"/>
	<path class="st2" d="M131.58,153.11c-0.1,2.53,1.54,5.01,4.14,6.24c2.59,1.23,6.03,1.17,8.67-0.15c0.61-0.31,1.19-0.68,1.63-1.15
		c1.41-1.51,1.18-3.61,0.83-5.47c-0.91-4.87-2.11-9.74-4.63-14.16c-2.52-4.41-6.48-8.37-11.78-10.43
		C130.92,136.19,131.9,144.88,131.58,153.11z"/>
	<circle class="st9" cx="127.29" cy="140.94" r="11.48"/>
	<circle class="st10" cx="127.29" cy="140.94" r="8.35"/>
	<rect x="122.06" y="55.14" class="st9" width="10.45" height="79.59"/>
	<path class="st9" d="M133.62,32.02c-0.5-0.61-1.05-0.48-2.5-1.04c-2.53-0.98-2.5-2.01-3.86-2.04c-1-0.02-0.93,0.54-3.76,1.84
		c-1.65,0.76-2.16,0.79-2.59,1.42c-0.75,1.08-0.34,2.55-0.16,3.26c1.03,3.99,2.96,11.46,0.89,16.32c-0.3,0.71-0.7,1.38-0.49,2.23
		c0.47,1.94,3.61,3.01,6.01,3.03c2.63,0.02,5.94-1.2,6.37-3.21c0.18-0.83-0.2-1.46-0.49-2.14c-2.16-4.97-0.17-12.66,0.75-16.23
		C133.99,34.65,134.45,33.03,133.62,32.02z M123.76,37.91c0-0.66,0.54-1.2,1.2-1.2c0.66,0,1.2,0.54,1.2,1.2v1.2h-2.4V37.91z
		 M123.76,40.37h2.4v3.39h-2.4V40.37z M123.66,45.02h2.6v3.6h-2.6V45.02z M126.28,50.1c0,0.73-0.59,1.32-1.32,1.32
		c-0.73,0-1.32-0.59-1.32-1.32v-0.31h2.64V50.1z M128.42,37.91c0-0.66,0.54-1.2,1.2-1.2c0.66,0,1.2,0.54,1.2,1.2v1.2h-2.4V37.91z
		 M128.42,40.37h2.4v3.39h-2.4V40.37z M128.31,45.02h2.6v3.6h-2.6V45.02z M130.94,50.1c0,0.73-0.59,1.32-1.32,1.32
		c-0.73,0-1.32-0.59-1.32-1.32v-0.31h2.64V50.1z"/>
	<rect x="132.08" y="38.75" class="st9" width="2.02" height="2.02"/>
	<rect x="120.74" y="48.32" class="st9" width="2.02" height="2.02"/>
	<rect x="120.74" y="43.44" class="st9" width="2.02" height="2.02"/>
	<rect x="120.74" y="38.75" class="st9" width="2.02" height="2.02"/>
	<rect x="132.08" y="48.32" class="st9" width="2.02" height="2.02"/>
	<rect x="132.08" y="43.44" class="st9" width="2.02" height="2.02"/>
	<line class="st11" x1="125.81" y1="39.11" x2="126.84" y2="175.9"/>
	<line class="st11" x1="124.96" y1="43.76" x2="125.1" y2="175.9"/>
	<line class="st11" x1="123.85" y1="48.63" x2="123.21" y2="175.9"/>
	<line class="st11" x1="128.76" y1="39.11" x2="128.83" y2="175.9"/>
	<line class="st11" x1="129.62" y1="43.76" x2="130.59" y2="175.9"/>
	<line class="st11" x1="130.61" y1="48.63" x2="132.41" y2="175.9"/>
	<line class="st12" x1="121.67" y1="61.89" x2="133.25" y2="61.65"/>
	<line class="st12" x1="121.57" y1="68.4" x2="133.15" y2="68.16"/>
	<line class="st12" x1="122.01" y1="74.33" x2="133.59" y2="74.09"/>
	<line class="st12" x1="121.69" y1="79.84" x2="133.27" y2="79.6"/>
	<line class="st12" x1="121.81" y1="85.64" x2="133.39" y2="85.4"/>
	<line class="st12" x1="121.8" y1="91.2" x2="133.38" y2="90.96"/>
	<line class="st12" x1="121.52" y1="96.12" x2="133.1" y2="95.88"/>
	<line class="st12" x1="121.51" y1="100.86" x2="133.09" y2="100.62"/>
	<line class="st12" x1="121.61" y1="105.51" x2="133.19" y2="105.27"/>
	<line class="st12" x1="121.7" y1="109.96" x2="133.28" y2="109.72"/>
	<line class="st12" x1="121.78" y1="113.89" x2="133.36" y2="113.66"/>
	<line class="st12" x1="121.86" y1="117.91" x2="133.44" y2="117.67"/>
	<line class="st12" x1="121.68" y1="121.1" x2="133.26" y2="120.86"/>
	<line class="st12" x1="121.75" y1="124.46" x2="133.33" y2="124.22"/>
	<line class="st12" x1="121.49" y1="128.04" x2="133.07" y2="127.8"/>
	<line class="st12" x1="121.56" y1="131.24" x2="133.13" y2="131"/>
	<line class="st12" x1="121.61" y1="134.11" x2="133.19" y2="133.87"/>
	<line class="st13" x1="121.32" y1="55.91" x2="132.9" y2="55.67"/>
	<path class="st14" d="M106.71,164.57c-0.05,0.42-0.24,2.54,0.42,5.19c0.12,0.49,0.27,0.95,0.45,1.44c1.37,3.62,3.65,4.86,3.06,6.06
		c-0.58,1.19-3.41,1.13-5.23,0.47c-0.42-0.15-3.01-1.14-3.5-3.21c-0.23-0.97,0.06-1.88-0.22-1.97c-0.27-0.09-0.63,0.71-1.23,1.37
		c-0.45,0.5-2.26,2.51-4.62,2.44c-1.6-0.05-3.34-1.04-4.01-2.53c-0.68-1.53,0.21-2.6,0.69-4.97c0.87-4.27-0.45-8.35-2.05-13.28
		c-0.72-2.23-1.75-3.37-1.18-4.13c0.67-0.89,3.05-0.58,4.67,0.46c3.45,2.19,4.31,8.1,3.55,12.5c-0.62,3.57-2.24,5.74-1.31,6.56
		c0.68,0.61,2.41,0.17,3.32-0.85c1.34-1.49,0.67-3.96-0.05-6.88c-2.1-8.52-3.13-12.8-2.11-13.65c1.57-1.33,6.96,1.58,9.36,5.61
		c0.53,0.89,1.43,2.4,1.39,4.4C108.06,161.69,107.03,161.78,106.71,164.57z"/>
	<path class="st14" d="M111.69,165.79c1.09,0.88,1.81,1.47,2.25,2.5c0.68,1.59-0.09,2.35,0.59,3.32c0.9,1.27,3.44,1.71,4.3,0.68
		c0.71-0.84,0.16-2.52-0.59-3.5c-0.81-1.06-1.92-1.4-2.6-1.66c-2.91-1.15-5.79-4.24-6.42-7.39c-0.82-4.1,2.31-7.54,2.64-7.89
		c0.57-0.61,2.8-2.98,6.27-3.03c0.76-0.01,3.46,0.08,5.44,2.11c1.61,1.65,1.86,3.6,2.06,5.24c0.22,1.8,0.49,3.72-0.59,4.51
		c-1.57,1.14-4.63-1.12-4.85-1.28c-0.75-0.57-1.83-1.38-1.8-2.44c0.04-1.31,1.75-1.75,1.61-2.79c-0.11-0.85-1.4-1.6-2.45-1.47
		c-1.17,0.14-1.81,1.5-2.52,3.01c-0.8,1.71-1.2,2.56-0.95,3.33c0.85,2.62,7.86,0.28,10.74,3.81c2.04,2.5,1.22,6.75-0.27,9.34
		c-1.98,3.45-6.35,6.03-9.86,4.91c-2.2-0.7-3.54-2.68-4.29-3.78c-1.18-1.73-1.55-3.31-1.9-4.77c-0.39-1.63-0.94-3.98-0.13-4.46
		C109.09,163.68,110.5,164.83,111.69,165.79z"/>
	<path class="st14" d="M126.49,152.96c-0.49-2.12-1.68-2.46-1.39-3.27c0.46-1.29,3.81-1.53,6.13-0.61c1.12,0.44,1.55,0.98,1.72,1.22
		c0.69,0.98,0.58,2.11,0.52,2.73c-0.08,0.8-0.18,1.85-0.96,2.54c-0.52,0.46-1.55,0.52-3.62,0.64c-1.33,0.08-1.55,0-1.73-0.13
		C126.45,155.56,126.86,154.57,126.49,152.96z"/>
	<path class="st14" d="M127.15,156.96c0.26-0.17,0.36-0.05,1.89,0.06c2.49,0.18,2.84-0.1,3.73,0.27c0.07,0.03,1.58,0.66,2.15,2.03
		c0.78,1.87-1.02,3.15-1.42,5.63c-0.73,4.43,3.98,6.61,2.85,9.42c-0.82,2.02-4.22,3.36-6.87,2.32c-1.4-0.55-2.75-1.82-3.14-3.44
		c-0.39-1.62,0.64-2.24,1.05-5.01c0.18-1.23,0.08-2.39-0.11-4.71C126.92,159.39,126.27,157.55,127.15,156.96z"/>
	<path class="st14" d="M152.46,166.19c1.96,1.6,1.21,7.41-2.24,9.79c-3.62,2.49-8.49,0-9.05-0.29c-0.59-0.3-2.16-1.17-3.52-2.9
		c-2.07-2.64-2.27-5.47-2.32-6.4c-0.13-2.37,0.6-2.39,0.74-5.19c0.22-4.32-1.39-5.3-0.62-7.44c0.95-2.65,4.78-3.82,7.36-3.89
		c0.46-0.01,5.33-0.08,7.82,3.75c2.13,3.27,1.91,8.27-0.47,9.83c-1.14,0.75-2.99,0.83-4.27,0c-2.39-1.55-1.34-5.38-2.9-5.85
		c-1.36-0.41-3.94,1.98-3.75,3.97c0.18,1.86,2.63,1.96,3.09,4.2c0.45,2.15-1.42,4.04-0.57,4.85c0.37,0.35,1.09,0.35,1.4,0.35
		c0.73,0,1.27-0.28,1.5-0.4c1.7-0.9,1.69-2.94,3.17-4.11C149.14,165.44,151.38,165.31,152.46,166.19z"/>
	<path class="st14" d="M91.95,202.32c-1.18,1.15-0.98,3.67,0.13,5.25c1.67,2.37,5.35,2.6,5.97,1.64c0.57-0.88-1.66-2.46-1.02-3.97
		c0.63-1.47,3.42-1.56,3.78-1.57c0.81-0.03,2.14-0.07,2.99,0.7c1.6,1.44,1.1,5.33-0.77,7.54c-3.06,3.63-9.51,2.41-12.81,0.85
		c-1.28-0.6-2.69-1.31-3.33-2.79c-0.9-2.11,0.55-3.82,1.28-6.61c1.64-6.26-2.79-8.79-0.97-13.06c1.39-3.24,5.6-5.65,9.79-5.2
		c3.39,0.36,7.22,2.64,8.22,6.62c1.16,4.65-2.12,9.31-5.48,10.45C96.38,203.28,93.6,200.71,91.95,202.32z M96.28,198.65
		c2.11-1.25,2.14-4,2.14-4.23c-0.01-2.66-2.1-4.23-2.45-4.49c-1.34-1-3.56-1.8-4.21-1.07c-0.75,0.84,1.5,2.62,1.35,5.99
		c-0.1,2.17-1.11,3.2-0.46,3.96C93.32,199.6,95.13,199.33,96.28,198.65z"/>
	<path class="st14" d="M120.11,182.42c0.66,0.46,1.73,1.44,3.1,10.3c1.53,9.89,0.74,12.2,0.17,13.3c-0.23,0.43-0.69,1.19-0.73,2.29
		c-0.1,2.37,1.85,3.33,1.49,4.48c-0.58,1.88-6.72,2.45-7.76,0.52c-0.6-1.11,0.68-2.75,0.26-3.03c-0.46-0.3-1.76,1.81-4.09,2.96
		c-2.51,1.24-6.27,1.38-7.45-0.26c-1.04-1.45,0.99-2.97,1.1-7.55c0.08-3.18-0.75-3.4-0.55-6.72c0.13-2.13,0.32-4.76,2.21-6.81
		c0.46-0.5,2.12-2.3,3.96-2.03c2.23,0.33,3.25,3.5,3.96,3.22c0.5-0.19,0.29-1.86,0.18-2.58c-0.75-5.05-3.03-7.08-2.3-8.29
		C114.42,180.97,117.88,180.85,120.11,182.42z M109.95,208.66c0.81,0.84,3.92-0.22,5.79-2.3c2.19-2.44,3.08-6.73,1.11-8.93
		c-0.79-0.87-2.24-1.65-3.74-1.36c-1.19,0.23-2.22,1.09-2.72,2.13c-0.88,1.83,0.53,2.91,0.34,6.04
		C110.55,206.98,109.36,208.05,109.95,208.66z"/>
	<path class="st14" d="M164.16,208.76c-0.05-2.6-1.6-3.28-2.4-5.58c-1.34-3.9,1.93-5.36,1.53-11.06c-0.28-3.97-2.01-5.64-1.07-6.59
		c1.19-1.2,5.6,0.18,6.6,2.75c0.63,1.6-0.1,3.26,0.15,3.34c0.5,0.16,1.86-7.49,4.83-7.96c2.49-0.39,5.66,4.35,6.83,8.26
		c1.65,5.55,0.33,10.29,0.33,10.29c-0.56,2.02-1.43,3.53-0.77,5.42c0.74,2.09,2.63,2.54,2.43,3.38c-0.33,1.35-5.85,2.54-8.68-0.03
		c-2.36-2.15-2.39-6.53-1.31-9.36c0.78-2.04,2.08-3.18,1.53-4.4c-0.49-1.08-2.06-1.42-2.96-1.44c-1.06-0.02-2.46,0.39-3.14,1.44
		c-0.62,0.94-0.45,2.08,0.45,4.96c1.75,5.63,2.67,6.36,2.18,7.69c-0.95,2.56-5.8,3.66-6.83,2.45
		C163.31,211.67,164.2,210.76,164.16,208.76z"/>
	<path class="st14" d="M166.3,153.19c-0.49-2.12-1.68-2.46-1.39-3.27c0.46-1.29,3.81-1.53,6.13-0.61c1.12,0.44,1.55,0.98,1.72,1.22
		c0.69,0.98,0.58,2.11,0.52,2.73c-0.08,0.8-0.18,1.85-0.96,2.54c-0.52,0.46-1.55,0.52-3.62,0.64c-1.33,0.08-1.55,0-1.73-0.13
		C166.26,155.79,166.67,154.8,166.3,153.19z"/>
	<path class="st14" d="M166.96,157.2c0.26-0.17,0.36-0.05,1.89,0.06c2.49,0.18,2.84-0.1,3.73,0.27c0.07,0.03,1.58,0.66,2.15,2.03
		c0.78,1.87-1.02,3.15-1.42,5.63c-0.73,4.43,3.98,6.61,2.85,9.42c-0.82,2.02-4.22,3.36-6.87,2.32c-1.4-0.55-2.75-1.82-3.14-3.44
		c-0.39-1.62,0.64-2.24,1.05-5.01c0.18-1.23,0.08-2.39-0.11-4.71C166.73,159.63,166.08,157.78,166.96,157.2z"/>
	<path class="st14" d="M178.87,166.03c1.09,0.88,1.81,1.47,2.25,2.5c0.68,1.59-0.09,2.35,0.59,3.32c0.9,1.27,3.44,1.71,4.3,0.68
		c0.71-0.84,0.16-2.52-0.59-3.5c-0.81-1.06-1.92-1.4-2.6-1.66c-2.91-1.15-5.79-4.24-6.42-7.39c-0.82-4.1,2.31-7.54,2.64-7.89
		c0.57-0.61,2.8-2.98,6.27-3.03c0.76-0.01,3.46,0.08,5.44,2.11c1.61,1.65,1.86,3.6,2.06,5.24c0.22,1.8,0.49,3.72-0.59,4.51
		c-1.57,1.14-4.63-1.12-4.85-1.28c-0.75-0.57-1.83-1.38-1.8-2.44c0.04-1.31,1.75-1.75,1.61-2.79c-0.11-0.85-1.4-1.6-2.45-1.47
		c-1.17,0.14-1.81,1.5-2.52,3.01c-0.8,1.71-1.2,2.56-0.95,3.33c0.85,2.62,7.86,0.28,10.74,3.81c2.04,2.5,1.22,6.75-0.27,9.34
		c-1.98,3.45-6.35,6.03-9.86,4.91c-2.2-0.7-3.54-2.68-4.29-3.78c-1.18-1.73-1.55-3.31-1.9-4.77c-0.39-1.63-0.94-3.98-0.13-4.46
		C176.27,163.92,177.68,165.07,178.87,166.03z"/>
	<g>
		<path class="st14" d="M65.68,169.66c-0.91-6.12-2.79-6.57-3.47-12.37c-0.08-0.71-0.84-7.2,0.73-7.68c1.24-0.38,3.92,2.94,4.8,6.47
			c0.55,2.2,0.28,4.07,0.54,4.09c0.56,0.05,0.9-8.93,3.63-9.46c0.77-0.15,1.51,0.43,2.73,1.38c2.58,2.01,3.19,4.2,3.89,4
			c0.77-0.22-0.01-2.45,1.32-4.45c1.28-1.94,4.16-3.07,6.01-2.22c1.09,0.5,1.59,1.58,2.22,3.33c2.24,6.18,4.73,13.07,2.25,17.25
			c-0.23,0.39-0.87,1.29-0.95,2.61c-0.09,1.4,0.54,1.94,0.26,2.61c-0.53,1.27-3.87,2.02-5.59,0.7c-2.41-1.86-1.26-7.53-0.5-11.32
			c0.82-4.13,1.99-6.34,1.01-7.14c-0.81-0.65-2.66-0.04-3.6,0.94c-0.94,0.97-1.15,2.13-1.34,3.59c-0.23,1.82-0.02,2.97,0.17,4.82
			c0.44,4.29,0.66,6.44-0.16,6.92c-1.08,0.63-3.51-1.29-4.78-3.03c-0.32-0.43-2.29-3.14-1.6-6.17c0.55-2.42,2.52-3.75,1.95-4.59
			c-0.3-0.44-1.04-0.39-1.49-0.39c-1.62,0.02-2.88,1.43-3.33,2.69c-0.22,0.61-0.22,1.14-0.21,1.31c0.07,3.86,5.29,9.16,4.21,11.61
			c-0.8,1.81-5.21,2.36-7.25,0.61C65.82,174.64,66.21,173.2,65.68,169.66z"/>
	</g>
	<g>
		<path class="st14" d="M61.2,205.44c-0.58-5.94-3.09-6.56-3.94-12.81c-0.33-2.42-0.62-7.27,0.73-7.68c1.24-0.38,3.92,2.94,4.8,6.47
			c0.55,2.2,0.28,4.07,0.54,4.09c0.56,0.05,0.9-8.93,3.63-9.46c0.77-0.15,1.51,0.43,2.73,1.38c2.58,2.01,3.19,4.2,3.89,4
			c0.77-0.22-0.01-2.45,1.32-4.45c1.28-1.94,4.16-3.07,6.01-2.22c1.09,0.5,1.59,1.58,2.22,3.33c2.24,6.18,4.73,13.07,2.25,17.25
			c-0.23,0.39-0.87,1.29-0.95,2.61c-0.09,1.4,0.54,1.94,0.26,2.61c-0.53,1.27-3.87,2.02-5.59,0.7c-2.41-1.86-1.26-7.53-0.5-11.32
			c0.82-4.13,1.99-6.34,1.01-7.14c-0.81-0.65-2.66-0.04-3.6,0.94c-0.94,0.97-1.15,2.13-1.34,3.59c-0.23,1.82-0.02,2.97,0.17,4.82
			c0.44,4.29,0.66,6.44-0.16,6.92c-1.08,0.63-3.51-1.29-4.78-3.03c-0.32-0.43-2.29-3.14-1.6-6.17c0.55-2.42,2.52-3.75,1.95-4.59
			c-0.3-0.44-1.04-0.39-1.49-0.39c-1.62,0.02-2.88,1.43-3.33,2.69c-0.22,0.61-0.22,1.14-0.21,1.31c0.07,3.86,5.29,9.16,4.21,11.61
			c-0.81,1.84-5.35,2.4-7.25,0.61C60.97,209.97,61.51,208.56,61.2,205.44z"/>
	</g>
	<path class="st14" d="M124.75,189.03c-0.49-2.12-1.68-2.46-1.39-3.27c0.46-1.29,3.81-1.53,6.13-0.61c1.12,0.44,1.55,0.98,1.72,1.22
		c0.69,0.98,0.58,2.11,0.52,2.73c-0.08,0.8-0.18,1.85-0.96,2.54c-0.52,0.46-1.55,0.52-3.62,0.64c-1.33,0.08-1.55,0-1.73-0.13
		C124.72,191.63,125.13,190.64,124.75,189.03z"/>
	<path class="st14" d="M125.42,193.03c0.26-0.17,0.36-0.05,1.89,0.06c2.49,0.18,2.84-0.1,3.73,0.27c0.07,0.03,1.58,0.66,2.15,2.03
		c0.78,1.87-1.02,3.15-1.42,5.63c-0.73,4.43,3.98,6.61,2.85,9.42c-0.82,2.02-4.22,3.36-6.87,2.32c-1.4-0.55-2.75-1.82-3.14-3.44
		c-0.39-1.62,0.64-2.24,1.05-5.01c0.18-1.23,0.08-2.39-0.11-4.71C125.19,195.46,124.53,193.62,125.42,193.03z"/>
	<path class="st14" d="M150.67,200.97c1.96,1.6,1.21,7.41-2.24,9.79c-3.62,2.49-8.49,0-9.05-0.29c-0.59-0.3-2.16-1.17-3.52-2.9
		c-2.07-2.64-2.27-5.47-2.32-6.4c-0.13-2.37,0.6-2.39,0.74-5.19c0.22-4.32-1.39-5.3-0.62-7.44c0.95-2.65,4.78-3.82,7.36-3.89
		c0.46-0.01,5.33-0.08,7.82,3.75c2.13,3.27,1.91,8.27-0.47,9.83c-1.14,0.75-2.99,0.83-4.27,0c-2.39-1.55-1.34-5.38-2.9-5.85
		c-1.36-0.41-3.94,1.98-3.75,3.97c0.18,1.86,2.63,1.96,3.09,4.2c0.45,2.15-1.42,4.04-0.57,4.85c0.37,0.35,1.09,0.35,1.4,0.35
		c0.73,0,1.27-0.28,1.5-0.4c1.7-0.9,1.69-2.94,3.17-4.11C147.34,200.22,149.59,200.09,150.67,200.97z"/>
	<path class="st14" d="M152.63,188.9c-0.49-2.12-1.68-2.46-1.39-3.27c0.46-1.29,3.81-1.53,6.13-0.61c1.12,0.44,1.55,0.98,1.72,1.22
		c0.69,0.98,0.58,2.11,0.52,2.73c-0.08,0.8-0.18,1.85-0.96,2.54c-0.52,0.46-1.55,0.52-3.62,0.64c-1.33,0.08-1.55,0-1.73-0.13
		C152.6,191.5,153.01,190.51,152.63,188.9z"/>
	<path class="st14" d="M153.3,192.91c0.26-0.17,0.36-0.05,1.89,0.06c2.49,0.18,2.84-0.1,3.73,0.27c0.07,0.03,1.58,0.66,2.15,2.03
		c0.78,1.87-1.02,3.15-1.42,5.63c-0.73,4.43,3.98,6.61,2.85,9.42c-0.82,2.02-4.22,3.36-6.87,2.32c-1.4-0.55-2.75-1.82-3.14-3.44
		c-0.39-1.62,0.64-2.24,1.05-5.01c0.18-1.23,0.08-2.39-0.11-4.71C153.07,195.34,152.41,193.49,153.3,192.91z"/>
	<path class="st14" d="M186.95,200.27c-1.18,1.15-0.98,3.67,0.13,5.25c1.67,2.37,5.35,2.6,5.97,1.64c0.57-0.88-1.66-2.46-1.02-3.97
		c0.63-1.47,3.42-1.56,3.78-1.57c0.81-0.03,2.14-0.07,2.99,0.7c1.6,1.44,1.1,5.33-0.77,7.54c-3.06,3.63-9.51,2.41-12.81,0.85
		c-1.28-0.6-2.69-1.31-3.33-2.79c-0.9-2.11,0.55-3.82,1.28-6.61c1.64-6.26-2.79-8.79-0.97-13.06c1.39-3.24,5.6-5.65,9.79-5.2
		c3.39,0.36,7.22,2.64,8.22,6.62c1.16,4.65-2.12,9.31-5.48,10.45C191.38,201.23,188.6,198.66,186.95,200.27z M191.28,196.6
		c2.11-1.25,2.14-4,2.14-4.23c-0.01-2.66-2.1-4.23-2.45-4.49c-1.34-1-3.56-1.8-4.21-1.07c-0.75,0.84,1.5,2.62,1.35,5.99
		c-0.1,2.17-1.11,3.2-0.46,3.96C188.32,197.55,190.13,197.28,191.28,196.6z"/>
</g>
<g>
	<path class="st2" d="M121.39,204.2c-0.07,0.91-0.12,1.88,0.33,2.67c0.38,0.65,1.04,1.07,1.57,1.61c3.11,3.13,0.73,8.6,2.25,12.74
		c0.77,2.09,2.62,3.76,4.79,4.3c1.22,0.31,2.54,0.29,3.66,0.86c0.92,0.47,1.6,1.28,2.46,1.86c2.33,1.57,5.89,0.88,7.46-1.45
		c0.86-1.27,1.14-2.85,1.85-4.22c2.16-4.16,7.9-5.68,9.6-10.04c1.49-3.82-0.76-7.99-2.94-11.46c-0.76-1.22-1.55-2.47-2.68-3.36
		c-1.46-1.15-3.36-1.61-5.22-1.71c-4.16-0.22-8.22,1.16-12.36,1.62c-2.11,0.24-7.86-1.92-9.21-1.31
		C120.96,197.21,121.52,202.37,121.39,204.2z"/>
	<path class="st3" d="M147.73,154.56c7.02,0.35,13.69,4.7,16.84,10.98c0.85,1.69,1.46,3.51,2.57,5.05c1.46,2.03,3.65,3.39,5.82,4.63
		c4.79,2.75,9.94,5.34,13.17,9.81c3.23,4.47,3.67,11.56-0.68,14.95c-2.14,1.67-5.32,2.48-6.14,5.06c-0.45,1.44,0.01,3.05-0.46,4.48
		c-0.54,1.64-2.19,2.67-3.84,3.19c-3.13,1-6.68,0.62-9.54-1c-8.58-4.87-8.29-17.81-15.27-24.79c-3.83-3.82-9.35-5.35-13.84-8.37
		c-3.34-2.25-6.05-5.29-8.73-8.29c-1.36-1.52-2.78-3.19-3-5.22C123.7,156.55,142.31,154.29,147.73,154.56z"/>
	<path class="st4" d="M80.77,134.24c3.47,2.33,7.35,4.59,11.58,3.96c2.33-0.35,4.55-1.55,6.79-2.48c4.32-1.79,8.97-2.62,13.29-1.73
		s8.27,3.65,10.27,7.89c0.59,1.25,1.01,2.62,1.6,3.88c0.73,1.58,1.72,2.99,2.48,4.55c1.94,4.01,2.24,9.13,0.56,13.63
		c-1.68,4.51-5.39,8.26-9.61,9.4c-4.17,1.12-8.3-0.25-12.38-0.99c-3.45-0.62-7.07-0.77-10.57,0.32c-3.5,1.09-6.87,3.56-8.7,7.12
		c-4.4,0.93-8.74-1.26-11.55-4.75c-2.81-3.49-4.28-8.11-5.22-12.79c-0.53-2.64-0.91-5.36-1.88-7.81
		c-2.24-5.68-10.63-12.47-6.9-19.87C65.29,125.13,75.53,130.71,80.77,134.24z"/>
	<path class="st4" d="M138.26,119.73c-0.45-3.81,1.03-8.01,4.31-9.99c1.97-1.19,4.37-1.48,6.68-1.4c6.21,0.22,12.28,3.07,16.42,7.71
		c4.14,4.64,6.28,10.99,5.8,17.19c-0.46,5.91-3.1,12.26-0.23,17.44c1.37,2.47,3.9,4.41,4.24,7.21c0.24,1.96-0.71,3.89-1.94,5.43
		c-4.36,5.42-13.29,6.75-18.59,2.25c-3.87-3.29-5.27-8.82-4.71-13.87c0.48-4.3,2.21-8.62,1.21-12.84
		C149.42,130.36,139.37,129.04,138.26,119.73z"/>
	<path class="st5" d="M145.55,141.49c0.77,2.94,0.8,6.04,0.56,9.07c-0.05,0.59-0.1,1.19,0.1,1.75c0.21,0.6,0.7,1.07,1.21,1.46
		c1.1,0.84,2.39,1.45,3.77,1.63c2.68,0.36,5.41-0.95,7.18-2.99c1.77-2.04,2.68-4.71,3.03-7.39c0.15-1.15,0.2-2.32-0.02-3.45
		c-0.29-1.5-1.04-2.86-1.57-4.28c-1.11-3-1.31-6.44-3.28-8.96c-1.57-2.02-4.03-3.11-6.41-4.05c-1.37-0.54-2.86-1.07-4.29-0.72
		c-0.98,0.24-1.82,0.88-2.58,1.55c-1.26,1.12-2.42,2.42-3,4c-0.99,2.68,0.11,4.1,1.83,5.89
		C143.79,136.79,144.93,139.1,145.55,141.49z"/>
	<path class="st5" d="M102.83,123.6c-4.08-0.56-9.09,0.2-10.82,3.94c-2.41,5.22,3.61,11.13,2.19,16.7c-0.66,2.6-2.81,4.51-4.6,6.51
		c-2.15,2.41-3.91,5.17-5.18,8.14c-0.49,1.15-0.92,2.37-0.9,3.63c0.02,1.46,0.65,2.85,1.45,4.08c3.52,5.36,10.83,7.86,16.9,5.78
		s10.3-8.55,9.79-14.94c-0.26-3.23-1.58-6.26-2.46-9.38c-0.88-3.12-1.29-6.6,0.18-9.48c1.17-2.28,8.18-7.13,6.97-9.92
		C115.1,125.75,105.59,123.98,102.83,123.6z"/>
	<path class="st2" d="M95.97,128.54c2.66,2.61,7.13,3.34,10.27,1.33c1.75-1.12,3.15-3.02,5.21-3.29c0.95-0.12,1.92,0.12,2.86-0.04
		c2.33-0.42,3.44-3.05,4.15-5.31c0.81-2.59,1.62-5.18,2.43-7.77c0.83-2.65,1.42-6.09-0.83-7.72c-1.57-1.14-3.76-0.71-5.57,0
		c-1.8,0.71-3.62,1.69-5.55,1.5c-3.51-0.34-5.65-4.26-9.04-5.22c-1.91-0.54-3.95-0.06-5.84,0.56c-0.59,0.19-1.22,0.44-1.54,0.97
		c-0.28,0.47-0.26,1.05-0.24,1.59C92.61,111.22,90.82,124.03,95.97,128.54z"/>
	<path class="st6" d="M108.57,128.93c-0.59,2.97-1.93,5.86-1.73,8.88c0.53,8,11.16,12.5,11.64,20.51c0.21,3.53-1.89,7.05-5.03,8.69
		c-3.14,1.64-7.13,1.39-10.13-0.5c-3.79-2.38-5.67-6.79-8.13-10.53c-3.07-4.67-7.33-8.56-12.26-11.2c-1.21-0.65-2.48-1.24-3.44-2.21
		c-5.7-5.8,1.35-20.07,8.41-21.76c4.03-0.97,9.14-0.59,13.24-0.63C106.73,120.11,109.71,123.17,108.57,128.93z"/>
	<path class="st6" d="M166.86,140.11c4.18-1.83,9.92-0.97,12.05,3.07c1.85,3.48,0.69,8.44,3.67,11.03c1.2,1.04,2.82,1.42,4.35,1.83
		c2.39,0.64,4.81,1.46,6.71,3.05c1.9,1.59,3.2,4.1,2.74,6.54c-0.57,3.04-3.52,4.97-6.3,6.31s-5.88,2.62-7.41,5.31
		c-0.45,0.8-0.74,1.69-1.22,2.48c-1.59,2.65-5.1,3.7-8.13,3.08c-3.03-0.63-5.6-2.63-7.67-4.93c-1.12-1.24-2.13-2.6-3.46-3.61
		c-1.42-1.07-3.12-1.69-4.68-2.54c-2.9-1.58-5.29-3.94-7.63-6.27c-1.12-1.11-2.3-2.34-2.52-3.9c-0.33-2.36,1.64-4.39,3.62-5.71
		C157.41,151.56,159.41,143.37,166.86,140.11z"/>
	<path class="st3" d="M116.45,101.13c2.43-0.77,5.11,0.03,7.6-0.5c2.42-0.51,4.44-2.23,6.81-2.93c3.02-0.89,6.24-0.06,9.28,0.78
		c0.98,0.27,2.01,0.58,2.67,1.35c0.51,0.6,0.72,1.4,0.9,2.17c1.49,6.08,2.94,12.18,4.37,18.27c0.27,1.14,0.53,2.31,0.33,3.46
		c-0.53,3.08-4.27,4.67-7.35,4.14c-4.9-0.85-8.35-5.08-12.95-6.7c-3.1-1.09-6.52-0.82-9.58-1.9
		C111.85,116.9,107.99,103.81,116.45,101.13z"/>
	<path class="st5" d="M124.99,186.4c0.89-1.27,2.11-2.27,3.32-3.24c3.46-2.8,7.06-5.67,11.35-6.82c4.3-1.15,9.52-0.1,11.94,3.64
		c0.9,1.39,1.35,3.04,2.35,4.36c1.98,2.63,5.63,3.4,8,5.69c1.15,1.11,1.95,2.53,2.64,3.97c2.68,5.59,3.9,12.49,0.74,17.82
		c-2.15,3.62-5.96,5.92-9.83,7.56c-4.41,1.87-9.75,3.01-13.79,0.44c-5.01-3.2-6.37-11.12-12.13-12.58
		c-1.72-0.44-3.64-0.21-5.15-1.12c-1.46-0.89-2.17-2.69-2.2-4.39c-0.04-2.47,0.83-4.85,0.87-7.35
		C123.13,191.59,123.34,188.75,124.99,186.4z"/>
	<path class="st6" d="M125.31,172.24c-0.32-0.71-0.67-1.46-1.3-1.92c-0.82-0.6-1.92-0.6-2.85-1.01c-1.41-0.62-2.25-2.1-3.54-2.96
		c-1.91-1.26-4.46-0.95-6.61-0.16s-4.16,1.99-6.41,2.41c-2.84,0.53-5.86-0.22-8.59,0.69c-4.76,1.58-6.54,7.18-8.77,11.68
		c-0.92,1.86-2.04,3.69-2.34,5.75c-0.38,2.64,0.67,5.26,1.69,7.72c1.01,2.43,2.22,5.08,4.63,6.14c3.56,1.56,7.43-1.16,11.25-1.85
		c3.01-0.54,6.28,0.17,9.05-1.14c4.76-2.25,5.81-8.97,11.13-10.34c3.12-0.81,6.61-0.65,6.55-5.1
		C129.14,179.07,126.55,175,125.31,172.24z"/>
	<path class="st2" d="M159.06,151.36c1.24-0.17,2.55-0.31,3.71,0.16c1.01,0.4,1.79,1.22,2.46,2.09c2.32,3.01,3.54,6.85,3.39,10.65
		c-0.09,2.27-0.53,4.92,1.09,6.51c0.78,0.76,1.89,1.1,2.69,1.83c0.96,0.87,1.37,2.22,1.41,3.51c0.1,2.84-1.48,5.68-3.94,7.09
		c-2.47,1.42-5.71,1.35-8.11-0.17c-4.02-2.54-4.91-7.98-7.87-11.7c-2.91-3.66-14.13-8.08-12.7-13.9
		C142.46,152.24,155.05,151.9,159.06,151.36z"/>
	<path class="st5" d="M101.36,127.08c-1.11-0.96-1.89-2.43-1.62-3.87c0.27-1.44,1.51-2.51,2.82-3.17c1.31-0.66,2.75-1.03,4.03-1.74
		c3.36-1.87,5.43-6,9.21-6.72c1.58-0.3,3.21,0.06,4.8-0.13c1.31-0.16,2.54-0.69,3.83-0.96c3.24-0.67,6.56,0.35,9.71,1.36
		c0.56,0.18,1.15,0.38,1.54,0.82c0.87,0.97,0.35,2.51,0.7,3.76c0.26,0.95,1.01,1.69,1.34,2.61c0.59,1.69-0.36,3.52-1.51,4.89
		c-2.88,3.42-7.26,5.54-11.73,5.67c-2.07,0.06-4.14-0.31-6.2-0.14c-2.01,0.16-3.71,1.16-5.65,1.45
		C109.33,131.39,103.88,129.25,101.36,127.08z"/>
	<path class="st2" d="M80.22,167.12c6.92-3.83,15.47,0,23.36-0.51c1.89-0.12,3.75-0.5,5.64-0.49c6.68,0.02,12.7,5.05,15.14,11.28
		c0.78,1.98,1.25,4.21,0.61,6.24c-0.37,1.17-1.07,2.2-1.54,3.34c-1.25,3.06-0.62,6.54-1.13,9.81c-0.13,0.82-0.34,1.65-0.85,2.3
		c-0.53,0.68-1.33,1.09-2.12,1.43c-1.96,0.85-4.03,1.44-6.15,1.74c-2.82,0.4-6.08,0.47-7.9,2.68c-2.45,2.98-0.5,7.66-2.03,11.2
		c-1.2,2.76-4.26,4.22-7.21,4.81c-4.03,0.8-8.4,0.36-11.9-1.79c-3.5-2.15-5.96-6.15-5.71-10.25c0.25-4.12,3.04-7.92,2.56-12.02
		c-0.29-2.48-1.88-4.77-4.09-5.92c-2.26-1.18-4.93-1.15-7.46-1.52c-5.85-0.86-9.59-6.77-3.53-10.11c2.68-1.48,4.73-2.64,6.81-4.99
		C75.03,171.76,77.11,168.84,80.22,167.12z"/>
	<path class="st4" d="M76.51,191.98c0-0.77,0-1.57,0.38-2.24c0.42-0.74,1.22-1.19,2.02-1.48c3.64-1.35,7.79-0.4,11.51-1.53
		c2.49-0.76,4.94-2.45,7.47-1.81c1.71,0.43,2.97,1.83,4.12,3.17c1.41,1.64,2.91,3.49,2.89,5.65c-0.02,1.94-1.25,3.63-1.81,5.48
		c-2.07,6.85,5.2,13.86,3.4,20.79c-1.38,5.34-8.19,8-13.35,6.07c-5.17-1.92-8.47-7.28-9.3-12.73c-0.24-1.56-0.31-3.17-0.88-4.64
		c-1.22-3.16-4.5-4.94-5.82-7.99C75.98,198.11,76.52,194.79,76.51,191.98z"/>
	<path class="st3" d="M132.4,199.13c0.91,0.18,1.87,0.38,2.55,1.01c1.22,1.13,1.02,3.18,0.19,4.62c-0.83,1.44-2.15,2.55-3.09,3.92
		c-1.7,2.49-2.07,5.69-3.71,8.22c-1.97,3.03-5.45,4.67-8.78,6.07c-1.24,0.52-2.51,1.03-3.86,1.1c-3.08,0.15-5.74-2.07-7.85-4.32
		c-2.11-2.25-4.22-4.79-7.18-5.65c-1.43-0.42-2.95-0.39-4.43-0.57c-3.77-0.44-7.37-2.18-10.04-4.87c-1.64-1.64-2.98-3.79-2.9-6.11
		c0.11-3.22,2.87-5.71,5.64-7.34c2.27-1.34,4.77-2.41,7.4-2.58c6.85-0.45,12.98,5.15,19.83,4.82
		C122.05,197.17,126.56,197.97,132.4,199.13z"/>
	<path class="st3" d="M99.6,152.48c-1.65-2.3-3.65-4.66-3.72-7.49c-0.06-2.56,1.48-4.84,2.95-6.93c1.19-1.68,2.42-3.41,4.13-4.55
		s4.04-1.62,5.84-0.62c1.13,0.63,1.92,1.74,2.5,2.9c1.75,3.55,1.79,7.69,1.35,11.62c-0.44,3.93-1.33,7.83-1.31,11.78
		c0.01,3.13-1.46,17.19-5.82,8.26c-0.96-1.96-0.68-4.27-1.29-6.34C103.35,158.05,101.45,155.05,99.6,152.48z"/>
	<rect x="110.39" y="173.45" class="st7" width="34.7" height="5.57"/>
	<path class="st8" d="M136.35,205.4h-17.19c-1.77-0.01-10.87-0.21-18.21-7.54c-0.82-0.82-7.97-8.18-7.54-18.21
		c0.32-7.63,4.95-14.89,7.42-18.77c2.79-4.38,4.77-6.1,4.88-9.75c0.11-3.91-2.07-5.18-3.18-10.39c-0.83-3.88-0.73-8.41,0.42-11.66
		c3.13-8.78,15.44-12.75,24.18-12.93c9.88-0.2,22.75,4.28,25.5,12.88c1.38,4.31,0.36,10.11,0.18,11.13
		c-0.96,5.43-2.88,7.06-2.59,11.04c0.27,3.6,2.05,5.22,4.63,9.38c2.36,3.81,6.99,11.27,7.25,19.07c0.34,10.12-6.79,17.46-7.54,18.21
		C147.24,205.16,138.15,205.39,136.35,205.4z"/>
	<path class="st2" d="M131.58,153.11c-0.1,2.53,1.54,5.01,4.14,6.24c2.59,1.23,6.03,1.17,8.67-0.15c0.61-0.31,1.19-0.68,1.63-1.15
		c1.41-1.51,1.18-3.61,0.83-5.47c-0.91-4.87-2.11-9.74-4.63-14.16c-2.52-4.41-6.48-8.37-11.78-10.43
		C130.92,136.19,131.9,144.88,131.58,153.11z"/>
	<circle class="st9" cx="127.29" cy="140.94" r="11.48"/>
	<circle class="st10" cx="127.29" cy="140.94" r="8.35"/>
	<rect x="122.06" y="55.14" class="st9" width="10.45" height="79.59"/>
	<path class="st9" d="M133.62,32.02c-0.5-0.61-1.05-0.48-2.5-1.04c-2.53-0.98-2.5-2.01-3.86-2.04c-1-0.02-0.93,0.54-3.76,1.84
		c-1.65,0.76-2.16,0.79-2.59,1.42c-0.75,1.08-0.34,2.55-0.16,3.26c1.03,3.99,2.96,11.46,0.89,16.32c-0.3,0.71-0.7,1.38-0.49,2.23
		c0.47,1.94,3.61,3.01,6.01,3.03c2.63,0.02,5.94-1.2,6.37-3.21c0.18-0.83-0.2-1.46-0.49-2.14c-2.16-4.97-0.17-12.66,0.75-16.23
		C133.99,34.65,134.45,33.03,133.62,32.02z M123.76,37.91c0-0.66,0.54-1.2,1.2-1.2c0.66,0,1.2,0.54,1.2,1.2v1.2h-2.4V37.91z
		 M123.76,40.37h2.4v3.39h-2.4V40.37z M123.66,45.02h2.6v3.6h-2.6V45.02z M126.28,50.1c0,0.73-0.59,1.32-1.32,1.32
		c-0.73,0-1.32-0.59-1.32-1.32v-0.31h2.64V50.1z M128.42,37.91c0-0.66,0.54-1.2,1.2-1.2c0.66,0,1.2,0.54,1.2,1.2v1.2h-2.4V37.91z
		 M128.42,40.37h2.4v3.39h-2.4V40.37z M128.31,45.02h2.6v3.6h-2.6V45.02z M130.94,50.1c0,0.73-0.59,1.32-1.32,1.32
		c-0.73,0-1.32-0.59-1.32-1.32v-0.31h2.64V50.1z"/>
	<rect x="132.08" y="38.75" class="st9" width="2.02" height="2.02"/>
	<rect x="120.74" y="48.32" class="st9" width="2.02" height="2.02"/>
	<rect x="120.74" y="43.44" class="st9" width="2.02" height="2.02"/>
	<rect x="120.74" y="38.75" class="st9" width="2.02" height="2.02"/>
	<rect x="132.08" y="48.32" class="st9" width="2.02" height="2.02"/>
	<rect x="132.08" y="43.44" class="st9" width="2.02" height="2.02"/>
	<line class="st11" x1="125.81" y1="39.11" x2="126.84" y2="175.9"/>
	<line class="st11" x1="124.96" y1="43.76" x2="125.1" y2="175.9"/>
	<line class="st11" x1="123.85" y1="48.63" x2="123.21" y2="175.9"/>
	<line class="st11" x1="128.76" y1="39.11" x2="128.83" y2="175.9"/>
	<line class="st11" x1="129.62" y1="43.76" x2="130.59" y2="175.9"/>
	<line class="st11" x1="130.61" y1="48.63" x2="132.41" y2="175.9"/>
	<line class="st12" x1="121.67" y1="61.89" x2="133.25" y2="61.65"/>
	<line class="st12" x1="121.57" y1="68.4" x2="133.15" y2="68.16"/>
	<line class="st12" x1="122.01" y1="74.33" x2="133.59" y2="74.09"/>
	<line class="st12" x1="121.69" y1="79.84" x2="133.27" y2="79.6"/>
	<line class="st12" x1="121.81" y1="85.64" x2="133.39" y2="85.4"/>
	<line class="st12" x1="121.8" y1="91.2" x2="133.38" y2="90.96"/>
	<line class="st12" x1="121.52" y1="96.12" x2="133.1" y2="95.88"/>
	<line class="st12" x1="121.51" y1="100.86" x2="133.09" y2="100.62"/>
	<line class="st12" x1="121.61" y1="105.51" x2="133.19" y2="105.27"/>
	<line class="st12" x1="121.7" y1="109.96" x2="133.28" y2="109.72"/>
	<line class="st12" x1="121.78" y1="113.89" x2="133.36" y2="113.66"/>
	<line class="st12" x1="121.86" y1="117.91" x2="133.44" y2="117.67"/>
	<line class="st12" x1="121.68" y1="121.1" x2="133.26" y2="120.86"/>
	<line class="st12" x1="121.75" y1="124.46" x2="133.33" y2="124.22"/>
	<line class="st12" x1="121.49" y1="128.04" x2="133.07" y2="127.8"/>
	<line class="st12" x1="121.56" y1="131.24" x2="133.13" y2="131"/>
	<line class="st12" x1="121.61" y1="134.11" x2="133.19" y2="133.87"/>
	<line class="st13" x1="121.32" y1="55.91" x2="132.9" y2="55.67"/>
	<path class="st14" d="M106.71,164.57c-0.05,0.42-0.24,2.54,0.42,5.19c0.12,0.49,0.27,0.95,0.45,1.44c1.37,3.62,3.65,4.86,3.06,6.06
		c-0.58,1.19-3.41,1.13-5.23,0.47c-0.42-0.15-3.01-1.14-3.5-3.21c-0.23-0.97,0.06-1.88-0.22-1.97c-0.27-0.09-0.63,0.71-1.23,1.37
		c-0.45,0.5-2.26,2.51-4.62,2.44c-1.6-0.05-3.34-1.04-4.01-2.53c-0.68-1.53,0.21-2.6,0.69-4.97c0.87-4.27-0.45-8.35-2.05-13.28
		c-0.72-2.23-1.75-3.37-1.18-4.13c0.67-0.89,3.05-0.58,4.67,0.46c3.45,2.19,4.31,8.1,3.55,12.5c-0.62,3.57-2.24,5.74-1.31,6.56
		c0.68,0.61,2.41,0.17,3.32-0.85c1.34-1.49,0.67-3.96-0.05-6.88c-2.1-8.52-3.13-12.8-2.11-13.65c1.57-1.33,6.96,1.58,9.36,5.61
		c0.53,0.89,1.43,2.4,1.39,4.4C108.06,161.69,107.03,161.78,106.71,164.57z"/>
	<path class="st14" d="M111.69,165.79c1.09,0.88,1.81,1.47,2.25,2.5c0.68,1.59-0.09,2.35,0.59,3.32c0.9,1.27,3.44,1.71,4.3,0.68
		c0.71-0.84,0.16-2.52-0.59-3.5c-0.81-1.06-1.92-1.4-2.6-1.66c-2.91-1.15-5.79-4.24-6.42-7.39c-0.82-4.1,2.31-7.54,2.64-7.89
		c0.57-0.61,2.8-2.98,6.27-3.03c0.76-0.01,3.46,0.08,5.44,2.11c1.61,1.65,1.86,3.6,2.06,5.24c0.22,1.8,0.49,3.72-0.59,4.51
		c-1.57,1.14-4.63-1.12-4.85-1.28c-0.75-0.57-1.83-1.38-1.8-2.44c0.04-1.31,1.75-1.75,1.61-2.79c-0.11-0.85-1.4-1.6-2.45-1.47
		c-1.17,0.14-1.81,1.5-2.52,3.01c-0.8,1.71-1.2,2.56-0.95,3.33c0.85,2.62,7.86,0.28,10.74,3.81c2.04,2.5,1.22,6.75-0.27,9.34
		c-1.98,3.45-6.35,6.03-9.86,4.91c-2.2-0.7-3.54-2.68-4.29-3.78c-1.18-1.73-1.55-3.31-1.9-4.77c-0.39-1.63-0.94-3.98-0.13-4.46
		C109.09,163.68,110.5,164.83,111.69,165.79z"/>
	<path class="st14" d="M126.49,152.96c-0.49-2.12-1.68-2.46-1.39-3.27c0.46-1.29,3.81-1.53,6.13-0.61c1.12,0.44,1.55,0.98,1.72,1.22
		c0.69,0.98,0.58,2.11,0.52,2.73c-0.08,0.8-0.18,1.85-0.96,2.54c-0.52,0.46-1.55,0.52-3.62,0.64c-1.33,0.08-1.55,0-1.73-0.13
		C126.45,155.56,126.86,154.57,126.49,152.96z"/>
	<path class="st14" d="M127.15,156.96c0.26-0.17,0.36-0.05,1.89,0.06c2.49,0.18,2.84-0.1,3.73,0.27c0.07,0.03,1.58,0.66,2.15,2.03
		c0.78,1.87-1.02,3.15-1.42,5.63c-0.73,4.43,3.98,6.61,2.85,9.42c-0.82,2.02-4.22,3.36-6.87,2.32c-1.4-0.55-2.75-1.82-3.14-3.44
		c-0.39-1.62,0.64-2.24,1.05-5.01c0.18-1.23,0.08-2.39-0.11-4.71C126.92,159.39,126.27,157.55,127.15,156.96z"/>
	<path class="st14" d="M152.46,166.19c1.96,1.6,1.21,7.41-2.24,9.79c-3.62,2.49-8.49,0-9.05-0.29c-0.59-0.3-2.16-1.17-3.52-2.9
		c-2.07-2.64-2.27-5.47-2.32-6.4c-0.13-2.37,0.6-2.39,0.74-5.19c0.22-4.32-1.39-5.3-0.62-7.44c0.95-2.65,4.78-3.82,7.36-3.89
		c0.46-0.01,5.33-0.08,7.82,3.75c2.13,3.27,1.91,8.27-0.47,9.83c-1.14,0.75-2.99,0.83-4.27,0c-2.39-1.55-1.34-5.38-2.9-5.85
		c-1.36-0.41-3.94,1.98-3.75,3.97c0.18,1.86,2.63,1.96,3.09,4.2c0.45,2.15-1.42,4.04-0.57,4.85c0.37,0.35,1.09,0.35,1.4,0.35
		c0.73,0,1.27-0.28,1.5-0.4c1.7-0.9,1.69-2.94,3.17-4.11C149.14,165.44,151.38,165.31,152.46,166.19z"/>
	<path class="st14" d="M91.95,202.32c-1.18,1.15-0.98,3.67,0.13,5.25c1.67,2.37,5.35,2.6,5.97,1.64c0.57-0.88-1.66-2.46-1.02-3.97
		c0.63-1.47,3.42-1.56,3.78-1.57c0.81-0.03,2.14-0.07,2.99,0.7c1.6,1.44,1.1,5.33-0.77,7.54c-3.06,3.63-9.51,2.41-12.81,0.85
		c-1.28-0.6-2.69-1.31-3.33-2.79c-0.9-2.11,0.55-3.82,1.28-6.61c1.64-6.26-2.79-8.79-0.97-13.06c1.39-3.24,5.6-5.65,9.79-5.2
		c3.39,0.36,7.22,2.64,8.22,6.62c1.16,4.65-2.12,9.31-5.48,10.45C96.38,203.28,93.6,200.71,91.95,202.32z M96.28,198.65
		c2.11-1.25,2.14-4,2.14-4.23c-0.01-2.66-2.1-4.23-2.45-4.49c-1.34-1-3.56-1.8-4.21-1.07c-0.75,0.84,1.5,2.62,1.35,5.99
		c-0.1,2.17-1.11,3.2-0.46,3.96C93.32,199.6,95.13,199.33,96.28,198.65z"/>
	<path class="st14" d="M120.11,182.42c0.66,0.46,1.73,1.44,3.1,10.3c1.53,9.89,0.74,12.2,0.17,13.3c-0.23,0.43-0.69,1.19-0.73,2.29
		c-0.1,2.37,1.85,3.33,1.49,4.48c-0.58,1.88-6.72,2.45-7.76,0.52c-0.6-1.11,0.68-2.75,0.26-3.03c-0.46-0.3-1.76,1.81-4.09,2.96
		c-2.51,1.24-6.27,1.38-7.45-0.26c-1.04-1.45,0.99-2.97,1.1-7.55c0.08-3.18-0.75-3.4-0.55-6.72c0.13-2.13,0.32-4.76,2.21-6.81
		c0.46-0.5,2.12-2.3,3.96-2.03c2.23,0.33,3.25,3.5,3.96,3.22c0.5-0.19,0.29-1.86,0.18-2.58c-0.75-5.05-3.03-7.08-2.3-8.29
		C114.42,180.97,117.88,180.85,120.11,182.42z M109.95,208.66c0.81,0.84,3.92-0.22,5.79-2.3c2.19-2.44,3.08-6.73,1.11-8.93
		c-0.79-0.87-2.24-1.65-3.74-1.36c-1.19,0.23-2.22,1.09-2.72,2.13c-0.88,1.83,0.53,2.91,0.34,6.04
		C110.55,206.98,109.36,208.05,109.95,208.66z"/>
	<path class="st14" d="M164.16,208.76c-0.05-2.6-1.6-3.28-2.4-5.58c-1.34-3.9,1.93-5.36,1.53-11.06c-0.28-3.97-2.01-5.64-1.07-6.59
		c1.19-1.2,5.6,0.18,6.6,2.75c0.63,1.6-0.1,3.26,0.15,3.34c0.5,0.16,1.86-7.49,4.83-7.96c2.49-0.39,5.66,4.35,6.83,8.26
		c1.65,5.55,0.33,10.29,0.33,10.29c-0.56,2.02-1.43,3.53-0.77,5.42c0.74,2.09,2.63,2.54,2.43,3.38c-0.33,1.35-5.85,2.54-8.68-0.03
		c-2.36-2.15-2.39-6.53-1.31-9.36c0.78-2.04,2.08-3.18,1.53-4.4c-0.49-1.08-2.06-1.42-2.96-1.44c-1.06-0.02-2.46,0.39-3.14,1.44
		c-0.62,0.94-0.45,2.08,0.45,4.96c1.75,5.63,2.67,6.36,2.18,7.69c-0.95,2.56-5.8,3.66-6.83,2.45
		C163.31,211.67,164.2,210.76,164.16,208.76z"/>
	<path class="st14" d="M166.3,153.19c-0.49-2.12-1.68-2.46-1.39-3.27c0.46-1.29,3.81-1.53,6.13-0.61c1.12,0.44,1.55,0.98,1.72,1.22
		c0.69,0.98,0.58,2.11,0.52,2.73c-0.08,0.8-0.18,1.85-0.96,2.54c-0.52,0.46-1.55,0.52-3.62,0.64c-1.33,0.08-1.55,0-1.73-0.13
		C166.26,155.79,166.67,154.8,166.3,153.19z"/>
	<path class="st14" d="M166.96,157.2c0.26-0.17,0.36-0.05,1.89,0.06c2.49,0.18,2.84-0.1,3.73,0.27c0.07,0.03,1.58,0.66,2.15,2.03
		c0.78,1.87-1.02,3.15-1.42,5.63c-0.73,4.43,3.98,6.61,2.85,9.42c-0.82,2.02-4.22,3.36-6.87,2.32c-1.4-0.55-2.75-1.82-3.14-3.44
		c-0.39-1.62,0.64-2.24,1.05-5.01c0.18-1.23,0.08-2.39-0.11-4.71C166.73,159.63,166.08,157.78,166.96,157.2z"/>
	<path class="st14" d="M178.87,166.03c1.09,0.88,1.81,1.47,2.25,2.5c0.68,1.59-0.09,2.35,0.59,3.32c0.9,1.27,3.44,1.71,4.3,0.68
		c0.71-0.84,0.16-2.52-0.59-3.5c-0.81-1.06-1.92-1.4-2.6-1.66c-2.91-1.15-5.79-4.24-6.42-7.39c-0.82-4.1,2.31-7.54,2.64-7.89
		c0.57-0.61,2.8-2.98,6.27-3.03c0.76-0.01,3.46,0.08,5.44,2.11c1.61,1.65,1.86,3.6,2.06,5.24c0.22,1.8,0.49,3.72-0.59,4.51
		c-1.57,1.14-4.63-1.12-4.85-1.28c-0.75-0.57-1.83-1.38-1.8-2.44c0.04-1.31,1.75-1.75,1.61-2.79c-0.11-0.85-1.4-1.6-2.45-1.47
		c-1.17,0.14-1.81,1.5-2.52,3.01c-0.8,1.71-1.2,2.56-0.95,3.33c0.85,2.62,7.86,0.28,10.74,3.81c2.04,2.5,1.22,6.75-0.27,9.34
		c-1.98,3.45-6.35,6.03-9.86,4.91c-2.2-0.7-3.54-2.68-4.29-3.78c-1.18-1.73-1.55-3.31-1.9-4.77c-0.39-1.63-0.94-3.98-0.13-4.46
		C176.27,163.92,177.68,165.07,178.87,166.03z"/>
	<g>
		<path class="st14" d="M65.68,169.66c-0.91-6.12-2.79-6.57-3.47-12.37c-0.08-0.71-0.84-7.2,0.73-7.68c1.24-0.38,3.92,2.94,4.8,6.47
			c0.55,2.2,0.28,4.07,0.54,4.09c0.56,0.05,0.9-8.93,3.63-9.46c0.77-0.15,1.51,0.43,2.73,1.38c2.58,2.01,3.19,4.2,3.89,4
			c0.77-0.22-0.01-2.45,1.32-4.45c1.28-1.94,4.16-3.07,6.01-2.22c1.09,0.5,1.59,1.58,2.22,3.33c2.24,6.18,4.73,13.07,2.25,17.25
			c-0.23,0.39-0.87,1.29-0.95,2.61c-0.09,1.4,0.54,1.94,0.26,2.61c-0.53,1.27-3.87,2.02-5.59,0.7c-2.41-1.86-1.26-7.53-0.5-11.32
			c0.82-4.13,1.99-6.34,1.01-7.14c-0.81-0.65-2.66-0.04-3.6,0.94c-0.94,0.97-1.15,2.13-1.34,3.59c-0.23,1.82-0.02,2.97,0.17,4.82
			c0.44,4.29,0.66,6.44-0.16,6.92c-1.08,0.63-3.51-1.29-4.78-3.03c-0.32-0.43-2.29-3.14-1.6-6.17c0.55-2.42,2.52-3.75,1.95-4.59
			c-0.3-0.44-1.04-0.39-1.49-0.39c-1.62,0.02-2.88,1.43-3.33,2.69c-0.22,0.61-0.22,1.14-0.21,1.31c0.07,3.86,5.29,9.16,4.21,11.61
			c-0.8,1.81-5.21,2.36-7.25,0.61C65.82,174.64,66.21,173.2,65.68,169.66z"/>
	</g>
	<g>
		<path class="st14" d="M61.2,205.44c-0.58-5.94-3.09-6.56-3.94-12.81c-0.33-2.42-0.62-7.27,0.73-7.68c1.24-0.38,3.92,2.94,4.8,6.47
			c0.55,2.2,0.28,4.07,0.54,4.09c0.56,0.05,0.9-8.93,3.63-9.46c0.77-0.15,1.51,0.43,2.73,1.38c2.58,2.01,3.19,4.2,3.89,4
			c0.77-0.22-0.01-2.45,1.32-4.45c1.28-1.94,4.16-3.07,6.01-2.22c1.09,0.5,1.59,1.58,2.22,3.33c2.24,6.18,4.73,13.07,2.25,17.25
			c-0.23,0.39-0.87,1.29-0.95,2.61c-0.09,1.4,0.54,1.94,0.26,2.61c-0.53,1.27-3.87,2.02-5.59,0.7c-2.41-1.86-1.26-7.53-0.5-11.32
			c0.82-4.13,1.99-6.34,1.01-7.14c-0.81-0.65-2.66-0.04-3.6,0.94c-0.94,0.97-1.15,2.13-1.34,3.59c-0.23,1.82-0.02,2.97,0.17,4.82
			c0.44,4.29,0.66,6.44-0.16,6.92c-1.08,0.63-3.51-1.29-4.78-3.03c-0.32-0.43-2.29-3.14-1.6-6.17c0.55-2.42,2.52-3.75,1.95-4.59
			c-0.3-0.44-1.04-0.39-1.49-0.39c-1.62,0.02-2.88,1.43-3.33,2.69c-0.22,0.61-0.22,1.14-0.21,1.31c0.07,3.86,5.29,9.16,4.21,11.61
			c-0.81,1.84-5.35,2.4-7.25,0.61C60.97,209.97,61.51,208.56,61.2,205.44z"/>
	</g>
	<path class="st14" d="M124.75,189.03c-0.49-2.12-1.68-2.46-1.39-3.27c0.46-1.29,3.81-1.53,6.13-0.61c1.12,0.44,1.55,0.98,1.72,1.22
		c0.69,0.98,0.58,2.11,0.52,2.73c-0.08,0.8-0.18,1.85-0.96,2.54c-0.52,0.46-1.55,0.52-3.62,0.64c-1.33,0.08-1.55,0-1.73-0.13
		C124.72,191.63,125.13,190.64,124.75,189.03z"/>
	<path class="st14" d="M125.42,193.03c0.26-0.17,0.36-0.05,1.89,0.06c2.49,0.18,2.84-0.1,3.73,0.27c0.07,0.03,1.58,0.66,2.15,2.03
		c0.78,1.87-1.02,3.15-1.42,5.63c-0.73,4.43,3.98,6.61,2.85,9.42c-0.82,2.02-4.22,3.36-6.87,2.32c-1.4-0.55-2.75-1.82-3.14-3.44
		c-0.39-1.62,0.64-2.24,1.05-5.01c0.18-1.23,0.08-2.39-0.11-4.71C125.19,195.46,124.53,193.62,125.42,193.03z"/>
	<path class="st14" d="M150.67,200.97c1.96,1.6,1.21,7.41-2.24,9.79c-3.62,2.49-8.49,0-9.05-0.29c-0.59-0.3-2.16-1.17-3.52-2.9
		c-2.07-2.64-2.27-5.47-2.32-6.4c-0.13-2.37,0.6-2.39,0.74-5.19c0.22-4.32-1.39-5.3-0.62-7.44c0.95-2.65,4.78-3.82,7.36-3.89
		c0.46-0.01,5.33-0.08,7.82,3.75c2.13,3.27,1.91,8.27-0.47,9.83c-1.14,0.75-2.99,0.83-4.27,0c-2.39-1.55-1.34-5.38-2.9-5.85
		c-1.36-0.41-3.94,1.98-3.75,3.97c0.18,1.86,2.63,1.96,3.09,4.2c0.45,2.15-1.42,4.04-0.57,4.85c0.37,0.35,1.09,0.35,1.4,0.35
		c0.73,0,1.27-0.28,1.5-0.4c1.7-0.9,1.69-2.94,3.17-4.11C147.34,200.22,149.59,200.09,150.67,200.97z"/>
	<path class="st14" d="M152.63,188.9c-0.49-2.12-1.68-2.46-1.39-3.27c0.46-1.29,3.81-1.53,6.13-0.61c1.12,0.44,1.55,0.98,1.72,1.22
		c0.69,0.98,0.58,2.11,0.52,2.73c-0.08,0.8-0.18,1.85-0.96,2.54c-0.52,0.46-1.55,0.52-3.62,0.64c-1.33,0.08-1.55,0-1.73-0.13
		C152.6,191.5,153.01,190.51,152.63,188.9z"/>
	<path class="st14" d="M153.3,192.91c0.26-0.17,0.36-0.05,1.89,0.06c2.49,0.18,2.84-0.1,3.73,0.27c0.07,0.03,1.58,0.66,2.15,2.03
		c0.78,1.87-1.02,3.15-1.42,5.63c-0.73,4.43,3.98,6.61,2.85,9.42c-0.82,2.02-4.22,3.36-6.87,2.32c-1.4-0.55-2.75-1.82-3.14-3.44
		c-0.39-1.62,0.64-2.24,1.05-5.01c0.18-1.23,0.08-2.39-0.11-4.71C153.07,195.34,152.41,193.49,153.3,192.91z"/>
	<path class="st14" d="M186.95,200.27c-1.18,1.15-0.98,3.67,0.13,5.25c1.67,2.37,5.35,2.6,5.97,1.64c0.57-0.88-1.66-2.46-1.02-3.97
		c0.63-1.47,3.42-1.56,3.78-1.57c0.81-0.03,2.14-0.07,2.99,0.7c1.6,1.44,1.1,5.33-0.77,7.54c-3.06,3.63-9.51,2.41-12.81,0.85
		c-1.28-0.6-2.69-1.31-3.33-2.79c-0.9-2.11,0.55-3.82,1.28-6.61c1.64-6.26-2.79-8.79-0.97-13.06c1.39-3.24,5.6-5.65,9.79-5.2
		c3.39,0.36,7.22,2.64,8.22,6.62c1.16,4.65-2.12,9.31-5.48,10.45C191.38,201.23,188.6,198.66,186.95,200.27z M191.28,196.6
		c2.11-1.25,2.14-4,2.14-4.23c-0.01-2.66-2.1-4.23-2.45-4.49c-1.34-1-3.56-1.8-4.21-1.07c-0.75,0.84,1.5,2.62,1.35,5.99
		c-0.1,2.17-1.11,3.2-0.46,3.96C188.32,197.55,190.13,197.28,191.28,196.6z"/>
</g>
<g>
</g>
<g>
</g>
<g>
</g>
<g>
</g>
<g>
</g>
<g>
</g>
</svg>
